<svg width="164" height="59" viewBox="0 0 164 59" fill="none" xmlns="http://www.w3.org/2000/svg">
<path fill-rule="evenodd" clip-rule="evenodd" d="M77.3132 23.3668H74.1701V35.6192H77.3132C81.2213 35.6192 83.3353 33.5378 83.3353 29.4999C83.3214 25.4482 81.2213 23.3668 77.3132 23.3668ZM77.2993 19.662C84.3088 19.662 87.6189 23.797 87.6189 29.4999C87.6189 35.2029 84.2949 39.3379 77.2993 39.3379H69.9282V19.662H77.2993Z" fill="#2C3144"/>
<path fill-rule="evenodd" clip-rule="evenodd" d="M97.2012 19.662C99.4403 19.662 101.721 20.2031 103.335 21.1189V24.907C101.735 23.7692 99.6072 23.2003 97.4932 23.2281C95.4349 23.2558 94.4057 23.8247 94.4057 24.9903C94.4057 28.265 104.767 27.0439 104.767 33.7737C104.767 38.0197 101.36 39.3379 97.382 39.3379C94.7534 39.3379 92.3196 38.7135 90.3725 37.6312V33.7737C92.5421 35.2029 94.9203 35.7718 97.076 35.7718C99.2595 35.7718 100.622 35.3139 100.622 33.968C100.622 30.4296 90.2612 31.7478 90.2612 25.0597C90.289 21.3965 93.4739 19.662 97.2012 19.662Z" fill="#2C3144"/>
<path fill-rule="evenodd" clip-rule="evenodd" d="M121.832 19.662V23.3668H112.18V27.5573H120.983V31.2344H112.18V35.6192H121.999V39.324H107.966V19.662H121.832Z" fill="#2C3144"/>
<path fill-rule="evenodd" clip-rule="evenodd" d="M125.406 39.324V19.662H129.37L138.535 32.4971C138.48 31.6785 138.452 30.6933 138.452 29.8052V19.662H142.666V39.324H138.702L129.537 26.4889C129.592 27.3076 129.62 28.2928 129.62 29.1808V39.324H125.406Z" fill="#2C3144"/>
<path fill-rule="evenodd" clip-rule="evenodd" d="M57.4387 23.2975C57.4666 22.9367 57.3831 22.562 57.1884 22.2429L55.7142 19.7036H54.1982L56.048 22.8951C56.1175 23.0199 56.1453 23.1587 56.1175 23.2975H57.4387Z" fill="#2C3144"/>
<path fill-rule="evenodd" clip-rule="evenodd" d="M67.1188 30.388L62.4597 38.436C62.1399 38.991 61.5557 39.324 60.916 39.324H51.6117C50.9719 39.324 50.3878 38.9771 50.0679 38.436L47.3003 33.6488L46.5354 32.3306L45.4089 30.388C45.089 29.833 45.089 29.1531 45.4089 28.598L50.0679 20.55C50.3878 19.995 50.9719 19.662 51.6117 19.662H54.2124L56.0622 22.8673C56.1317 22.9922 56.1595 23.1309 56.1317 23.2697H52.6687L49.0666 29.4999L50.6938 32.3306L51.3614 33.4962L52.6548 35.7441H59.859L63.4611 29.5138L59.859 23.2836H57.453C57.4808 22.9228 57.3973 22.5482 57.2026 22.229L55.7284 19.6759H60.916C61.5557 19.6759 62.1399 20.0089 62.4597 20.5639L67.1188 28.6119C67.4387 29.1531 67.4387 29.833 67.1188 30.388Z" fill="#2C3144"/>
<path fill-rule="evenodd" clip-rule="evenodd" d="M46.5631 32.3306H42.6133V33.6488H47.328L46.5631 32.3306Z" fill="#F17900"/>
<path fill-rule="evenodd" clip-rule="evenodd" d="M57.4669 23.2697C57.453 23.5611 57.3695 23.8386 57.2304 24.1023L52.2654 32.6914C52.0568 33.0383 51.7508 33.3158 51.3892 33.4823L50.7216 32.3167C50.8885 32.289 51.0415 32.1919 51.125 32.0392L56.0761 23.4501C56.1178 23.3946 56.1317 23.3252 56.1456 23.2697C56.1735 23.1309 56.1596 22.9783 56.0761 22.8534L54.2264 19.662L51.125 14.2782C51.0137 14.0978 50.819 13.9868 50.6104 13.9868H40.6802C40.4716 13.9868 40.2769 14.0978 40.1796 14.2782L35.2145 22.8534C35.1032 23.0477 35.1032 23.2697 35.2145 23.4501L35.6874 24.2549L35.7013 24.2826L37.857 28.0291L37.8848 28.0707L38.3994 28.9588V31.5952L37.0642 29.2918L37.0503 29.2641L34.8807 25.5315L34.8668 25.4898L34.0741 24.1023C33.7403 23.5195 33.7403 22.7979 34.0741 22.2013L39.0391 13.6121C39.3729 13.0294 39.9988 12.6686 40.6802 12.6686H50.6104C51.2918 12.6686 51.9177 13.0294 52.2654 13.6121L55.7562 19.662L57.2304 22.2013C57.4113 22.5343 57.4947 22.8951 57.4669 23.2697Z" fill="#F17900"/>
<path d="M38.747 19.662L35.7012 24.2826L37.8569 28.0291L37.8847 28.0707L38.4271 27.2382V39.324H42.655V19.662H38.747ZM37.0502 29.2641L34.8806 25.5315L32.0156 29.8885L25.2565 19.662H21.3345V39.324H25.5624V27.2104L30.7639 35.1058H33.2256L37.0641 29.2918L37.0502 29.2641Z" fill="#2C3144"/>
</svg>
